{"title":"L'Arc~en~Ciel Tour 2000 Real Final SKY PerfecTV! Hyde Channel","uid":8777864,"size":3965229406,"categoryP":"video","categoryS":"music_videos","magnet":"?xt=urn:btih:3ebe273106465662b3b0db48bc20737a04d0f9ff&amp;dn=L%27Arc%7Een%7ECiel+Tour+2000+Real+Final+SKY+PerfecTV%21+Hyde+Channel&amp;tr=udp%3A%2F%2Ftracker.openbittorrent.com%3A80&amp;tr=udp%3A%2F%2Fopen.demonii.com%3A1337&amp;tr=udp%3A%2F%2Ftracker.coppersurfer.tk%3A6969&amp;tr=udp%3A%2F%2Fexodus.desync.com%3A6969","seeders":1,"leechers":0,"uploader":"apftpb","files":3,"time":1375604917,"description":"L'Arc~en~Ciel Tour 2000 Real Final SKY PerfecTV! Hyde Channel\n\nL'Arc~en~Ciel\nTour 2000 Real Final\nDecember 6, 2000\nTokyo Dome\nTokyo, Japan\n\nSKY PerfecTV! Broadcast\nHyde Channel\n\nA first-in-history, multi-angle, 5 channel live broadcast on SKY PerfecTV!. The 5 different channels include hyde channel, ken channel, tetsu channel, and yukihiro channel.\n\nLineage unknown\nFile analysis below\n\nScreenshot #1 &lt;a href=&quot;\nhttp://bayimg.com/JAomjAAeb&quot; rel=&quot;nofollow&quot; target=&quot;_NEW&quot;&gt;\nhttp://bayimg.com/JAomjAAeb&lt;/a&gt;\n\nScreenshot #2 &lt;a href=&quot;\nhttp://bayimg.com/jaOmMaaEB&quot; rel=&quot;nofollow&quot; target=&quot;_NEW&quot;&gt;\nhttp://bayimg.com/jaOmMaaEB&lt;/a&gt;\n\nScreenshot #3 &lt;a href=&quot;\nhttp://bayimg.com/JAOMNaAEB&quot; rel=&quot;nofollow&quot; target=&quot;_NEW&quot;&gt;\nhttp://bayimg.com/JAOMNaAEB&lt;/a&gt;\n\nScreenshot #4 &lt;a href=&quot;\nhttp://bayimg.com/JAOMoAaEB&quot; rel=&quot;nofollow&quot; target=&quot;_NEW&quot;&gt;\nhttp://bayimg.com/JAOMoAaEB&lt;/a&gt;\n\nScreenshot #5 &lt;a href=&quot;\nhttp://bayimg.com/kaOMAaaeb&quot; rel=&quot;nofollow&quot; target=&quot;_NEW&quot;&gt;\nhttp://bayimg.com/kaOMAaaeb&lt;/a&gt;\n \nhyde - vocals, guitar\ntetsu - bass, backing vocals\nken - guitar, backing vocals\nyukihiro - drums\n\n01. get out from the shell -asian version-  \n02. THE NEPENTHES  \n03. Promised land  \n04. NEO UNIVERSE  \n05. LOVE FLIES  \n06. ROUTE 666  \n07. ALL YEAR AROUND FALLING IN LOVE  \n08. finale  \n09. Shinjitsu to Gensou to  \n10. a silent letter  \n11. fate  \n12. trick  \n13. HONEY  \n14. STAY AWAY  \n15. Shout at the Devil  \nEncore:\n16. Niji  \n17. DIVE TO BLUE  \n18. HEAVEN'S DRIVE  \n19. Driver's High  \n20. Anata \n\nThanks to the original uploader! \n\n-----------------------------------------------------------------------------\n\nFile analysis by SUPER Â© v2013.bld.57+Recorder (2013/07/13)\n\nDetailed Analysis of: L'Arc~en~Ciel Tour 2000 Real Final SKY PerfecTV! Hyde Channel.mpg\nFormat : MPEG-PS \nFile size : 3.69 GiB \nDuration : 2h 10mn \nOverall bit rate : 4 060 Kbps \n\n[Video] ID : 224 (0xE0) \nFormat : MPEG Video \nFormat version : Version 2 \nFormat profile : Main@Main \nFormat settings, BVOP : Yes \nFormat settings, Matrix : Default \nFormat settings, GOP : M=3, N=15 \nDuration : 2h 10mn \nBit rate : 3 766 Kbps \nWidth : 720 pixels \nHeight : 480 pixels \nDisplay aspect ratio : 4:3 \nFrame rate : 29.970 fps \nStandard : NTSC \nColor space : YUV \nChroma subsampling : 4:2:0 \nBit depth : 8 bits \nScan type : Progressive \nCompression mode : Lossy \nBits/(Pixel*Frame) : 0.364 \nStream size : 3.42 GiB (92%) \n\n[Audio] ID : 192 (0xC0) \nFormat : MPEG Audio \nFormat version : Version 1 \nFormat profile : Layer 2 \nDuration : 2h 10mn \nBit rate mode : Constant \nBit rate : 224 Kbps \nChannel(s) : 2 channels \nSampling rate : 48.0 KHz \nCompression mode : Lossy \nStream size : 209 MiB (6%) \n\n","torrent":{"xt":"urn:btih:3ebe273106465662b3b0db48bc20737a04d0f9ff","amp;dn":"L%27Arc%7Een%7ECiel+Tour+2000+Real+Final+SKY+PerfecTV%21+Hyde+Channel","amp;tr":["udp%3A%2F%2Ftracker.openbittorrent.com%3A80","udp%3A%2F%2Fopen.demonii.com%3A1337","udp%3A%2F%2Ftracker.coppersurfer.tk%3A6969","udp%3A%2F%2Fexodus.desync.com%3A6969"],"infoHash":"3ebe273106465662b3b0db48bc20737a04d0f9ff","infoHashBuffer":{"type":"Buffer","data":[62,190,39,49,6,70,86,98,179,176,219,72,188,32,115,122,4,208,249,255]},"announce":[],"urlList":[]}}